<?xml version="1.0" encoding="UTF-8" standalone="no"?>
<!-- Created with Inkscape (http://www.inkscape.org/) -->

<svg
   xmlns:dc="http://purl.org/dc/elements/1.1/"
   xmlns:cc="http://creativecommons.org/ns#"
   xmlns:rdf="http://www.w3.org/1999/02/22-rdf-syntax-ns#"
   xmlns:svg="http://www.w3.org/2000/svg"
   xmlns="http://www.w3.org/2000/svg"
   xmlns:sodipodi="http://sodipodi.sourceforge.net/DTD/sodipodi-0.dtd"
   xmlns:inkscape="http://www.inkscape.org/namespaces/inkscape"
   id="svg2"
   version="1.1"
   inkscape:version="0.91 r13725"
   xml:space="preserve"
   width="992.01373"
   height="558.00751"
   viewBox="0 0 992.01373 558.00751"
   sodipodi:docname="screen-collaboration.svg"
   inkscape:export-filename="/Users/loraine/Documents/legal-advice-for-artists/eindhoven-screens/screen-authorship.png"
   inkscape:export-xdpi="300"
   inkscape:export-ydpi="300"><metadata
     id="metadata8"><rdf:RDF><cc:Work
         rdf:about=""><dc:format>image/svg+xml</dc:format><dc:type
           rdf:resource="http://purl.org/dc/dcmitype/StillImage" /><dc:title></dc:title></cc:Work></rdf:RDF></metadata><defs
     id="defs6"><clipPath
       clipPathUnits="userSpaceOnUse"
       id="clipPath84"><path
         d="m 0,446.406 793.611,0 L 793.611,0 0,0 0,446.406 Z"
         id="path86"
         inkscape:connector-curvature="0" /></clipPath><clipPath
       clipPathUnits="userSpaceOnUse"
       id="clipPath146"><path
         d="m 0,446.406 793.611,0 L 793.611,0 0,0 0,446.406 Z"
         id="path148"
         inkscape:connector-curvature="0" /></clipPath></defs><sodipodi:namedview
     pagecolor="#ffffff"
     bordercolor="#666666"
     borderopacity="1"
     objecttolerance="10"
     gridtolerance="10"
     guidetolerance="10"
     inkscape:pageopacity="0"
     inkscape:pageshadow="2"
     inkscape:window-width="1370"
     inkscape:window-height="1028"
     id="namedview4"
     showgrid="false"
     showguides="false"
     inkscape:guide-bbox="true"
     inkscape:zoom="0.82256926"
     inkscape:cx="388.99006"
     inkscape:cy="230.12022"
     inkscape:window-x="40"
     inkscape:window-y="0"
     inkscape:window-maximized="0"
     inkscape:current-layer="g10"><sodipodi:guide
       position="500.30577,371.36099"
       orientation="1,0"
       id="guide3542" /><sodipodi:guide
       position="561.33964,273.36295"
       orientation="1,0"
       id="guide5007" /></sodipodi:namedview><g
     inkscape:groupmode="layer"
     id="layer1"
     inkscape:label="background white"
     style="display:none"
     sodipodi:insensitive="true"><rect
       style="opacity:1;fill:#ffffff;fill-opacity:1;stroke:none;stroke-width:2;stroke-linecap:round;stroke-linejoin:miter;stroke-miterlimit:4;stroke-dasharray:none;stroke-dashoffset:0;stroke-opacity:1"
       id="rect3601"
       width="898.64777"
       height="520.32092"
       x="-52.518375"
       y="-497.952"
       transform="matrix(1.25,0,0,1.25,0,558.0075)" /></g><g
     id="g10"
     inkscape:groupmode="layer"
     inkscape:label="practice-myth-authorship"
     transform="matrix(1.25,0,0,-1.25,0,558.0075)"><text
       transform="scale(1,-1)"
       style="font-variant:normal;font-weight:bold;font-stretch:normal;font-size:15.43949986px;font-family:Reglo;-inkscape-font-specification:Reglo-Bold;writing-mode:lr-tb;fill:#000000;fill-opacity:1;fill-rule:nonzero;stroke:none"
       id="text12"
       x="337.69525"
       y="-351.73434"><tspan
         sodipodi:role="line"
         id="tspan14"
         x="337.69525"
         y="-351.73434">LEAD DEVELOPER</tspan></text>
<g
       id="g3795"
       transform="translate(-3.7960278,24.475839)"><g
         transform="translate(400.59875,289.01649)"
         id="g16"><path
           sodipodi:nodetypes="cc"
           inkscape:connector-curvature="0"
           id="path18"
           style="fill:none;stroke:#000000;stroke-width:2.4000001;stroke-linecap:round;stroke-linejoin:miter;stroke-miterlimit:4;stroke-dasharray:none;stroke-opacity:1"
           d="M 0,16.715583 0,30.065754" /></g></g><text
       transform="scale(1,-1)"
       style="font-variant:normal;font-weight:bold;font-stretch:normal;font-size:15.43000031px;font-family:Reglo;-inkscape-font-specification:Reglo-Bold;text-align:center;writing-mode:lr-tb;text-anchor:middle;fill:#000000;fill-opacity:1;fill-rule:nonzero;stroke:none"
       id="text28"
       x="396.45471"
       y="-309.95663"><tspan
         sodipodi:role="line"
         id="tspan30"
         x="396.45471"
         y="-309.95663">PROJECT</tspan></text>
<text
       transform="scale(1,-1)"
       style="font-variant:normal;font-weight:bold;font-stretch:normal;font-size:15.43949986px;font-family:Reglo;-inkscape-font-specification:Reglo-Bold;writing-mode:lr-tb;fill:#000000;fill-opacity:1;fill-rule:nonzero;stroke:none"
       id="text32"
       x="396.4581"
       y="-61.16584"><tspan
         sodipodi:role="line"
         id="tspan38"
         x="400.0918"
         y="-61.16584"
         style="text-align:center;text-anchor:middle">COLLABORATIVE </tspan><tspan
         sodipodi:role="line"
         x="396.4581"
         y="-41.866467"
         id="tspan3816"
         style="text-align:center;text-anchor:middle">PROJECT</tspan></text>
<g
       id="g3965"
       transform="translate(46.22022,-151.40755)"><text
         y="-178.463"
         x="317.74518"
         id="text40"
         style="font-variant:normal;font-weight:bold;font-stretch:normal;font-size:15.43947887px;font-family:Reglo;-inkscape-font-specification:Reglo-Bold;writing-mode:lr-tb;fill:#000000;fill-opacity:1;fill-rule:nonzero;stroke:none"
         transform="matrix(0.96592637,0.25881702,0.25881702,-0.96592637,0,0)"><tspan
           y="-178.463"
           x="317.74518"
           id="tspan42"
           sodipodi:role="line">approved</tspan></text>
<g
         transform="translate(329.71885,294.45934)"
         id="g44"><path
           inkscape:connector-curvature="0"
           id="path46"
           style="fill:none;stroke:#000000;stroke-width:1.60000002;stroke-linecap:round;stroke-linejoin:miter;stroke-miterlimit:4;stroke-dasharray:none;stroke-opacity:1"
           d="M 0,0 4.871,-18.176" /></g><g
         transform="translate(324.73835,288.63174)"
         id="g48"><path
           inkscape:connector-curvature="0"
           id="path50"
           style="fill:none;stroke:#000000;stroke-width:1.60000002;stroke-linecap:round;stroke-linejoin:miter;stroke-miterlimit:4;stroke-dasharray:none;stroke-opacity:1"
           d="M 0,0 14.836,-6.52" /></g><g
         transform="translate(336.94935,291.90474)"
         id="g52"><path
           inkscape:connector-curvature="0"
           id="path54"
           style="fill:none;stroke:#000000;stroke-width:1.60000002;stroke-linecap:round;stroke-linejoin:miter;stroke-miterlimit:4;stroke-dasharray:none;stroke-opacity:1"
           d="M 0,0 -9.59,-13.063" /></g><g
         transform="translate(318.99615,263.60834)"
         id="g56"><path
           inkscape:connector-curvature="0"
           id="path58"
           style="fill:none;stroke:#000000;stroke-width:1.60000002;stroke-linecap:round;stroke-linejoin:miter;stroke-miterlimit:4;stroke-dasharray:none;stroke-opacity:1"
           d="M 0,0 2.919,-10.891" /></g><g
         transform="translate(316.10555,260.13904)"
         id="g60"><path
           inkscape:connector-curvature="0"
           id="path62"
           style="fill:none;stroke:#000000;stroke-width:1.60000002;stroke-linecap:round;stroke-linejoin:miter;stroke-miterlimit:4;stroke-dasharray:none;stroke-opacity:1"
           d="M 0,0 8.703,-3.956" /></g><g
         transform="translate(323.23445,262.04924)"
         id="g64"><path
           inkscape:connector-curvature="0"
           id="path66"
           style="fill:none;stroke:#000000;stroke-width:1.60000002;stroke-linecap:round;stroke-linejoin:miter;stroke-miterlimit:4;stroke-dasharray:none;stroke-opacity:1"
           d="M 0,0 -5.559,-7.776" /></g><g
         transform="translate(241.81655,263.09564)"
         id="g68"><path
           inkscape:connector-curvature="0"
           id="path70"
           style="fill:none;stroke:#000000;stroke-width:1.60000002;stroke-linecap:round;stroke-linejoin:miter;stroke-miterlimit:4;stroke-dasharray:none;stroke-opacity:1"
           d="M 0,0 4.871,-18.171" /></g><g
         transform="translate(236.83505,257.26794)"
         id="g72"><path
           inkscape:connector-curvature="0"
           id="path74"
           style="fill:none;stroke:#000000;stroke-width:1.60000002;stroke-linecap:round;stroke-linejoin:miter;stroke-miterlimit:4;stroke-dasharray:none;stroke-opacity:1"
           d="M 0,0 14.836,-6.515" /></g><g
         transform="translate(249.04695,260.54144)"
         id="g76"><path
           inkscape:connector-curvature="0"
           id="path78"
           style="fill:none;stroke:#000000;stroke-width:1.60000002;stroke-linecap:round;stroke-linejoin:miter;stroke-miterlimit:4;stroke-dasharray:none;stroke-opacity:1"
           d="M 0,0 -9.59,-13.063" /></g></g><text
       transform="scale(1,-1)"
       style="font-variant:normal;font-weight:bold;font-stretch:normal;font-size:15.43949986px;font-family:Reglo;-inkscape-font-specification:Reglo-Bold;writing-mode:lr-tb;fill:#000000;fill-opacity:1;fill-rule:nonzero;stroke:none"
       id="text132"
       x="383.80435"
       y="-227.6133"><tspan
         x="383.80435"
         y="-227.6133"
         sodipodi:role="line"
         id="tspan134" /><tspan
         x="224.90102 232.37373 241.12794 248.66243 255.40947 265.59952 273.35016 280.82288 289.57706 297.76001 305.04745 313.23038 321.42877 329.17938 335.92645 344.10938 351.64386"
         y="-384.89551"
         sodipodi:role="line"
         id="tspan136">THE MYTHOLOGY OF OPEN SOURCE COLLABORATION</tspan></text>
<text
       y="-302.88669"
       x="-256.75687"
       id="text3643"
       style="font-variant:normal;font-weight:bold;font-stretch:normal;font-size:15.43949986px;font-family:Reglo;-inkscape-font-specification:Reglo-Bold;writing-mode:lr-tb;fill:#000000;fill-opacity:1;fill-rule:nonzero;stroke:none"
       transform="scale(1,-1)"><tspan
         id="tspan3645"
         sodipodi:role="line"
         y="-302.88669"
         x="-256.75687 -252.75806 -244.00385 -236.0062 -227.74606 -223.74722 -215.25549 -207.62839 -200.15567 -196.15683 -187.97391">INSPIRATION</tspan></text>
<g
       transform="translate(-215.0333,226.0039)"
       id="g3647"><path
         inkscape:connector-curvature="0"
         id="path3649"
         style="fill:none;stroke:#000000;stroke-width:2.4000001;stroke-linecap:round;stroke-linejoin:miter;stroke-miterlimit:4;stroke-dasharray:none;stroke-opacity:1"
         d="M 0,0 0,43.117" /></g><g
       transform="translate(-215.0333,220.4648)"
       id="g3651"><path
         inkscape:connector-curvature="0"
         id="path3653"
         style="fill:#000000;fill-opacity:1;fill-rule:evenodd;stroke:none"
         d="m 0,0 -4.796,8.305 9.597,0 L 0,0 Z" /></g><g
       transform="translate(-215.0333,220.4648)"
       id="g3655"><path
         inkscape:connector-curvature="0"
         id="path3657"
         style="fill:none;stroke:#000000;stroke-width:1.20000005;stroke-linecap:butt;stroke-linejoin:miter;stroke-miterlimit:4;stroke-dasharray:none;stroke-opacity:1"
         d="m 0,0 -4.796,8.305 9.597,0 L 0,0 Z" /></g><text
       y="-190.7314"
       x="-252.94977"
       id="text3659"
       style="font-variant:normal;font-weight:bold;font-stretch:normal;font-size:15.43000031px;font-family:Reglo;-inkscape-font-specification:Reglo-Bold;writing-mode:lr-tb;fill:#000000;fill-opacity:1;fill-rule:nonzero;stroke:none"
       transform="scale(1,-1)"><tspan
         id="tspan3661"
         sodipodi:role="line"
         y="-190.7314"
         x="-252.94977 -244.84903 -236.36252 -228.8327 -221.19485 -213.72672 -209.73035 -202.12335 -198.12698 -190.68973">CREATIVITY</tspan></text>
<text
       y="-112.3232"
       x="-245.77597"
       id="text3663"
       style="font-variant:normal;font-weight:bold;font-stretch:normal;font-size:15.43949986px;font-family:Reglo;-inkscape-font-specification:Reglo-Bold;writing-mode:lr-tb;fill:#000000;fill-opacity:1;fill-rule:nonzero;stroke:none"
       transform="scale(1,-1)"><tspan
         id="tspan3665"
         sodipodi:role="line"
         y="-112.3232"
         x="-245.77597 -237.59305 -229.10132 -225.10248 -216.90411 -212.93616 -204.18198 -195.56671">ORIGINAL</tspan><tspan
         id="tspan3667"
         sodipodi:role="line"
         y="-93.023827"
         x="-239.4458 -230.83054 -222.07635 -218.07751 -209.89459 -201.27933">UNIQUE</tspan><tspan
         id="tspan3669"
         sodipodi:role="line"
         y="-73.724449"
         x="-247.25818 -239.15244 -230.66071 -223.12622 -215.48367 -208.01096 -204.01215 -195.82919">CREATION</tspan></text>
<text
       y="-301.93491"
       x="-92.912407"
       id="text3671"
       style="font-variant:normal;font-weight:bold;font-stretch:normal;font-size:15.43947887px;font-family:Reglo;-inkscape-font-specification:Reglo-Bold;writing-mode:lr-tb;fill:#000000;fill-opacity:1;fill-rule:nonzero;stroke:none"
       transform="matrix(0.96592637,0.25881702,0.25881702,-0.96592637,0,0)"><tspan
         id="tspan3673"
         sodipodi:role="line"
         y="-301.93491"
         x="-92.912407 -84.714043 -77.179588 -68.425377 -64.426598 -55.811359">GENIUS</tspan></text>
<g
       transform="translate(-103.7833,308.1562)"
       id="g3675"><path
         inkscape:connector-curvature="0"
         id="path3677"
         style="fill:none;stroke:#000000;stroke-width:1.60000002;stroke-linecap:round;stroke-linejoin:miter;stroke-miterlimit:4;stroke-dasharray:none;stroke-opacity:1"
         d="M 0,0 4.871,-18.176" /></g><g
       transform="translate(-108.7638,302.3286)"
       id="g3679"><path
         inkscape:connector-curvature="0"
         id="path3681"
         style="fill:none;stroke:#000000;stroke-width:1.60000002;stroke-linecap:round;stroke-linejoin:miter;stroke-miterlimit:4;stroke-dasharray:none;stroke-opacity:1"
         d="M 0,0 14.836,-6.52" /></g><g
       transform="translate(-96.552802,305.6016)"
       id="g3683"><path
         inkscape:connector-curvature="0"
         id="path3685"
         style="fill:none;stroke:#000000;stroke-width:1.60000002;stroke-linecap:round;stroke-linejoin:miter;stroke-miterlimit:4;stroke-dasharray:none;stroke-opacity:1"
         d="M 0,0 -9.59,-13.063" /></g><g
       transform="translate(-114.506,277.3052)"
       id="g3687"><path
         inkscape:connector-curvature="0"
         id="path3689"
         style="fill:none;stroke:#000000;stroke-width:1.60000002;stroke-linecap:round;stroke-linejoin:miter;stroke-miterlimit:4;stroke-dasharray:none;stroke-opacity:1"
         d="M 0,0 2.919,-10.891" /></g><g
       transform="translate(-117.3966,273.8359)"
       id="g3691"><path
         inkscape:connector-curvature="0"
         id="path3693"
         style="fill:none;stroke:#000000;stroke-width:1.60000002;stroke-linecap:round;stroke-linejoin:miter;stroke-miterlimit:4;stroke-dasharray:none;stroke-opacity:1"
         d="M 0,0 8.703,-3.956" /></g><g
       transform="translate(-110.2677,275.7461)"
       id="g3695"><path
         inkscape:connector-curvature="0"
         id="path3697"
         style="fill:none;stroke:#000000;stroke-width:1.60000002;stroke-linecap:round;stroke-linejoin:miter;stroke-miterlimit:4;stroke-dasharray:none;stroke-opacity:1"
         d="M 0,0 -5.559,-7.776" /></g><g
       transform="translate(-191.6856,276.7925)"
       id="g3699"><path
         inkscape:connector-curvature="0"
         id="path3701"
         style="fill:none;stroke:#000000;stroke-width:1.60000002;stroke-linecap:round;stroke-linejoin:miter;stroke-miterlimit:4;stroke-dasharray:none;stroke-opacity:1"
         d="M 0,0 4.871,-18.171" /></g><g
       transform="translate(-196.6671,270.9648)"
       id="g3703"><path
         inkscape:connector-curvature="0"
         id="path3705"
         style="fill:none;stroke:#000000;stroke-width:1.60000002;stroke-linecap:round;stroke-linejoin:miter;stroke-miterlimit:4;stroke-dasharray:none;stroke-opacity:1"
         d="M 0,0 14.836,-6.515" /></g><g
       transform="translate(-184.4552,274.2383)"
       id="g3707"><path
         inkscape:connector-curvature="0"
         id="path3709"
         style="fill:none;stroke:#000000;stroke-width:1.60000002;stroke-linecap:round;stroke-linejoin:miter;stroke-miterlimit:4;stroke-dasharray:none;stroke-opacity:1"
         d="M 0,0 -9.59,-13.063" /></g><g
       transform="translate(-280.6388,313.3755)"
       id="g3715"><path
         inkscape:connector-curvature="0"
         id="path3717"
         style="fill:none;stroke:#000000;stroke-width:2.4000001;stroke-linecap:round;stroke-linejoin:miter;stroke-miterlimit:4;stroke-dasharray:none;stroke-opacity:1"
         d="m 0,0 c -5.328,5.476 -7.137,13.488 -4.684,20.73 2.454,7.246 8.758,12.496 16.317,13.594" /></g><g
       transform="translate(-255.1427,282.0112)"
       id="g3719"><path
         inkscape:connector-curvature="0"
         id="path3721"
         style="fill:none;stroke:#000000;stroke-width:2.4000001;stroke-linecap:round;stroke-linejoin:miter;stroke-miterlimit:4;stroke-dasharray:none;stroke-opacity:1"
         d="m 0,0 c -6.297,-6.156 -15.836,-7.543 -23.625,-3.445 -7.785,4.102 -12.051,12.762 -10.562,21.449 1.488,8.688 8.39,15.422 17.097,16.688" /></g><g
       transform="translate(-232.5836,258.8164)"
       id="g3723"><path
         inkscape:connector-curvature="0"
         id="path3725"
         style="fill:none;stroke:#000000;stroke-width:2.4000001;stroke-linecap:round;stroke-linejoin:miter;stroke-miterlimit:4;stroke-dasharray:none;stroke-opacity:1"
         d="m 0,0 c -6.141,-1.613 -12.68,-0.258 -17.676,3.668 -4.992,3.922 -7.871,9.957 -7.774,16.317" /></g><g
       transform="translate(-148.9161,313.3755)"
       id="g3727"><path
         inkscape:connector-curvature="0"
         id="path3729"
         style="fill:none;stroke:#000000;stroke-width:2.4000001;stroke-linecap:round;stroke-linejoin:miter;stroke-miterlimit:4;stroke-dasharray:none;stroke-opacity:1"
         d="M 0,0 C 5.094,5.234 6.992,12.804 4.969,19.828 2.945,26.855 -2.684,32.25 -9.777,33.965 -16.871,35.683 -24.34,33.453 -29.336,28.125" /></g><g
       transform="translate(-140.0255,294.5942)"
       id="g3731"><path
         inkscape:connector-curvature="0"
         id="path3733"
         style="fill:none;stroke:#000000;stroke-width:2.4000001;stroke-linecap:round;stroke-linejoin:miter;stroke-miterlimit:4;stroke-dasharray:none;stroke-opacity:1"
         d="M 0,0 C 1.055,10.816 -6.562,20.55 -17.297,22.109" /></g><g
       transform="translate(-153.6231,105.75)"
       id="g3735"><path
         inkscape:connector-curvature="0"
         id="path3737"
         style="fill:none;stroke:#000000;stroke-width:2.4000001;stroke-linecap:round;stroke-linejoin:miter;stroke-miterlimit:4;stroke-dasharray:none;stroke-opacity:1"
         d="m 0,0 c 0,-33.359 -27.043,-60.398 -60.402,-60.398 -33.356,0 -60.399,27.039 -60.399,60.398 0,33.359 27.043,60.402 60.399,60.402 C -27.043,60.402 0,33.359 0,0 Z" /></g><g
       transform="translate(-189.3731,148.793)"
       id="g3739"><path
         inkscape:connector-curvature="0"
         id="path3741"
         style="fill:none;stroke:#000000;stroke-width:2.4000001;stroke-linecap:round;stroke-linejoin:miter;stroke-miterlimit:4;stroke-dasharray:none;stroke-opacity:1"
         d="M 0,0 C 6.145,-3.52 11.461,-8.313 15.598,-14.059" /></g><g
       transform="translate(-195.8341,145.375)"
       id="g3743"><path
         inkscape:connector-curvature="0"
         id="path3745"
         style="fill:none;stroke:#000000;stroke-width:2.4000001;stroke-linecap:round;stroke-linejoin:miter;stroke-miterlimit:4;stroke-dasharray:none;stroke-opacity:1"
         d="M 0,0 C 6.312,-2.898 11.844,-7.266 16.129,-12.734" /></g><g
       transform="translate(-187.588,132.8945)"
       id="g3747"><path
         inkscape:connector-curvature="0"
         id="path3749"
         style="fill:none;stroke:#000000;stroke-width:2.4000001;stroke-linecap:round;stroke-linejoin:miter;stroke-miterlimit:4;stroke-dasharray:none;stroke-opacity:1"
         d="M 0,0 C 3.719,4.445 8.262,8.125 13.379,10.836" /></g><g
       transform="translate(-193.7208,138.0273)"
       id="g3751"><path
         inkscape:connector-curvature="0"
         id="path3753"
         style="fill:none;stroke:#000000;stroke-width:2.4000001;stroke-linecap:round;stroke-linejoin:miter;stroke-miterlimit:4;stroke-dasharray:none;stroke-opacity:1"
         d="M 0,0 C 3.633,4.344 7.941,8.078 12.762,11.051" /></g><g
       transform="translate(-268.7369,341.9331)"
       id="g3755"><path
         inkscape:connector-curvature="0"
         id="path3757"
         style="fill:none;stroke:#000000;stroke-width:2.4000001;stroke-linecap:round;stroke-linejoin:miter;stroke-miterlimit:4;stroke-dasharray:none;stroke-opacity:1"
         d="m 0,0 c -0.769,9.602 5.286,18.43 14.512,21.149 9.223,2.719 19.086,-1.418 23.629,-9.906" /></g><text
       y="-38.933861"
       x="-377.48233"
       id="text3759"
       style="font-variant:normal;font-weight:bold;font-stretch:normal;font-size:15.43947887px;font-family:Reglo;-inkscape-font-specification:Reglo-Bold;writing-mode:lr-tb;fill:#000000;fill-opacity:1;fill-rule:nonzero;stroke:none"
       transform="matrix(0.96592637,-0.25881702,-0.25881702,-0.96592637,0,0)"><tspan
         id="tspan3761"
         sodipodi:role="line"
         y="-38.933861"
         x="-377.48233 -369.28397 -361.74951 -353.70554 -346.23282 -337.61761 -329.15677">GESTURE</tspan></text>
<g
       transform="translate(-425.0958,0)"
       id="g3763"><g
         clip-path="url(#clipPath146)"
         id="g3765"><g
           transform="translate(102.3281,204.2578)"
           id="g3767"><path
             inkscape:connector-curvature="0"
             id="path3769"
             style="fill:none;stroke:#000000;stroke-width:2.4000001;stroke-linecap:round;stroke-linejoin:round;stroke-miterlimit:4;stroke-dasharray:none;stroke-opacity:1"
             d="m 0,0 22.809,-6.109 14.527,3.847 c 4.914,2.532 8.863,0.758 5.656,-4.527 -2.14,-3.527 -9.804,-4.524 -14.707,-6.785 l 30.75,-17.754 c 3.024,-3.656 3.75,-8.117 -3.402,-8.93 l -24.816,14.274 25.265,-14.821 c 0,0 4.758,-7.218 -4.844,-8.105 l -24.535,14.738 22.875,-13.609 c -1.133,-2.356 1.867,-6.891 -5.453,-7.188 l -22.848,13.192 21.508,-12.418 c -0.941,-2.215 -0.168,-5 -7.144,-5.2 0,0 -33.379,18.2 -41.43,25.582 -8.047,7.383 -10.613,12.317 -10.613,12.317" /></g><g
           transform="translate(62.9146,174.5547)"
           id="g3771"><path
             inkscape:connector-curvature="0"
             id="path3773"
             style="fill:none;stroke:#000000;stroke-width:1.60000002;stroke-linecap:round;stroke-linejoin:miter;stroke-miterlimit:4;stroke-dasharray:none;stroke-opacity:1"
             d="M 0,0 4.87,-18.171" /></g><g
           transform="translate(57.9297,168.7266)"
           id="g3775"><path
             inkscape:connector-curvature="0"
             id="path3777"
             style="fill:none;stroke:#000000;stroke-width:1.60000002;stroke-linecap:round;stroke-linejoin:miter;stroke-miterlimit:4;stroke-dasharray:none;stroke-opacity:1"
             d="M 0,0 14.836,-6.516" /></g><g
           transform="translate(70.1445,172)"
           id="g3779"><path
             inkscape:connector-curvature="0"
             id="path3781"
             style="fill:none;stroke:#000000;stroke-width:1.60000002;stroke-linecap:round;stroke-linejoin:miter;stroke-miterlimit:4;stroke-dasharray:none;stroke-opacity:1"
             d="M 0,0 -9.59,-13.063" /></g><g
           transform="translate(52.1914,143.7041)"
           id="g3783"><path
             inkscape:connector-curvature="0"
             id="path3785"
             style="fill:none;stroke:#000000;stroke-width:1.60000002;stroke-linecap:round;stroke-linejoin:miter;stroke-miterlimit:4;stroke-dasharray:none;stroke-opacity:1"
             d="M 0,0 2.918,-10.892" /></g><g
           transform="translate(49.3008,140.2393)"
           id="g3787"><path
             inkscape:connector-curvature="0"
             id="path3789"
             style="fill:none;stroke:#000000;stroke-width:1.60000002;stroke-linecap:round;stroke-linejoin:miter;stroke-miterlimit:4;stroke-dasharray:none;stroke-opacity:1"
             d="M 0,0 8.7,-3.962" /></g><g
           transform="translate(56.4302,142.1494)"
           id="g3791"><path
             inkscape:connector-curvature="0"
             id="path3793"
             style="fill:none;stroke:#000000;stroke-width:1.60000002;stroke-linecap:round;stroke-linejoin:miter;stroke-miterlimit:4;stroke-dasharray:none;stroke-opacity:1"
             d="M 0,0 -5.559,-7.782" /></g></g></g><g
       transform="translate(-3.7960278,-194.73208)"
       id="g3801"><g
         id="g3803"
         transform="translate(400.59875,285.81649)"><path
           d="M 0,0 0,209.61158"
           style="fill:none;stroke:#000000;stroke-width:2.4000001;stroke-linecap:round;stroke-linejoin:miter;stroke-miterlimit:4;stroke-dasharray:none;stroke-opacity:1"
           id="path3805"
           inkscape:connector-curvature="0"
           sodipodi:nodetypes="cc" /></g><g
         style="fill:#000000"
         id="g3807"
         transform="translate(400.59875,280.27739)"><path
           d="m 0,0 -4.796,8.305 9.597,0 L 0,0 Z"
           style="fill:#000000;stroke:#000000;stroke-width:1.20000005;stroke-linecap:butt;stroke-linejoin:miter;stroke-miterlimit:4;stroke-dasharray:none;stroke-opacity:1"
           id="path3809"
           inkscape:connector-curvature="0" /></g></g><g
       transform="matrix(0.5948464,0.80383938,-0.80383938,0.5948464,418.62265,-225.24421)"
       id="g3824"><g
         id="g3826"
         transform="translate(400.59875,285.81649)"><path
           d="M 0,0 0,37.76791"
           style="fill:none;stroke:#000000;stroke-width:2.4000001;stroke-linecap:round;stroke-linejoin:miter;stroke-miterlimit:4;stroke-dasharray:none;stroke-opacity:1"
           id="path3828"
           inkscape:connector-curvature="0"
           sodipodi:nodetypes="cc" /></g><g
         style="fill:#000000"
         id="g3830"
         transform="translate(400.59875,280.27739)"><path
           d="m 0,0 -4.796,8.305 9.597,0 L 0,0 Z"
           style="fill:#000000;stroke:#000000;stroke-width:1.20000005;stroke-linecap:butt;stroke-linejoin:miter;stroke-miterlimit:4;stroke-dasharray:none;stroke-opacity:1"
           id="path3832"
           inkscape:connector-curvature="0" /></g></g><text
       transform="scale(1,-1)"
       style="font-variant:normal;font-weight:bold;font-stretch:normal;font-size:15.43949986px;font-family:Reglo;-inkscape-font-specification:Reglo-Bold;writing-mode:lr-tb;fill:#000000;fill-opacity:1;fill-rule:nonzero;stroke:none"
       id="text3838"
       x="434.32404"
       y="-243.20938"><tspan
         id="tspan3842"
         sodipodi:role="line"
         x="434.32404"
         y="-243.20938">try to use the software</tspan></text>
<g
       id="g3846"
       transform="matrix(-0.5948464,0.80383938,0.80383938,0.5948464,426.74698,-353.74398)"><g
         transform="translate(400.59875,285.81649)"
         id="g3848"><path
           sodipodi:nodetypes="ccc"
           inkscape:connector-curvature="0"
           id="path3850"
           style="fill:none;stroke:#000000;stroke-width:2.4000001;stroke-linecap:round;stroke-linejoin:miter;stroke-miterlimit:4;stroke-dasharray:none;stroke-opacity:1"
           d="M 0,0 0,17.143067 0,37.76791" /></g><g
         transform="translate(400.59875,280.27739)"
         id="g3852"
         style="fill:#000000"><path
           inkscape:connector-curvature="0"
           id="path3854"
           style="fill:#000000;stroke:#000000;stroke-width:1.20000005;stroke-linecap:butt;stroke-linejoin:miter;stroke-miterlimit:4;stroke-dasharray:none;stroke-opacity:1"
           d="m 0,0 -4.796,8.305 9.597,0 L 0,0 Z" /></g></g><text
       y="-174.08279"
       x="434.32404"
       id="text3856"
       style="font-variant:normal;font-weight:bold;font-stretch:normal;font-size:15.43949986px;font-family:Reglo;-inkscape-font-specification:Reglo-Bold;writing-mode:lr-tb;fill:#000000;fill-opacity:1;fill-rule:nonzero;stroke:none"
       transform="scale(1,-1)"><tspan
         y="-174.08279"
         x="434.32404"
         sodipodi:role="line"
         id="tspan3858">propose new functions</tspan></text>
<g
       transform="matrix(-0.5948464,0.80383938,0.80383938,0.5948464,393.04941,-378.50138)"
       id="g3872"><g
         id="g3874"
         transform="translate(400.59875,285.81649)"><path
           d="M 0,15.628378 0,29.177665"
           style="fill:none;stroke:#000000;stroke-width:2.4000001;stroke-linecap:round;stroke-linejoin:miter;stroke-miterlimit:4;stroke-dasharray:none;stroke-opacity:1"
           id="path3876"
           inkscape:connector-curvature="0"
           sodipodi:nodetypes="cc" /></g></g><text
       transform="scale(1,-1)"
       style="font-variant:normal;font-weight:bold;font-stretch:normal;font-size:15.43949986px;font-family:Reglo;-inkscape-font-specification:Reglo-Bold;writing-mode:lr-tb;fill:#000000;fill-opacity:1;fill-rule:nonzero;stroke:none"
       id="text3892"
       x="434.32404"
       y="-221.04352"><tspan
         id="tspan3894"
         sodipodi:role="line"
         x="434.32404"
         y="-221.04352">report bugs</tspan></text>
<g
       id="g3933"
       transform="translate(462.1037,208.91854)" /><g
       id="g4912"
       transform="translate(0,0.91229452)"><g
         transform="translate(330.381,208.91854)"
         id="g3921"><path
           inkscape:connector-curvature="0"
           id="path3923"
           style="fill:none;stroke:#000000;stroke-width:2.4000001;stroke-linecap:round;stroke-linejoin:miter;stroke-miterlimit:4;stroke-dasharray:none;stroke-opacity:1"
           d="m 0,0 c -5.328,5.476 -7.137,13.488 -4.684,20.73 2.454,7.246 8.758,12.496 16.317,13.594" /></g><g
         transform="translate(355.8771,177.55424)"
         id="g3925"><path
           inkscape:connector-curvature="0"
           id="path3927"
           style="fill:none;stroke:#000000;stroke-width:2.4000001;stroke-linecap:round;stroke-linejoin:miter;stroke-miterlimit:4;stroke-dasharray:none;stroke-opacity:1"
           d="m 0,0 c -6.297,-6.156 -15.836,-7.543 -23.625,-3.445 -7.785,4.102 -12.051,12.762 -10.562,21.449 1.488,8.688 8.39,15.422 17.097,16.688" /></g><g
         transform="translate(378.4362,154.35944)"
         id="g3929"><path
           inkscape:connector-curvature="0"
           id="path3931"
           style="fill:none;stroke:#000000;stroke-width:2.4000001;stroke-linecap:round;stroke-linejoin:miter;stroke-miterlimit:4;stroke-dasharray:none;stroke-opacity:1"
           d="m 0,0 c -6.141,-1.613 -12.68,-0.258 -17.676,3.668 -4.992,3.922 -7.871,9.957 -7.774,16.317" /></g><g
         transform="translate(342.2829,237.47614)"
         id="g3961"><path
           inkscape:connector-curvature="0"
           id="path3963"
           style="fill:none;stroke:#000000;stroke-width:2.4000001;stroke-linecap:round;stroke-linejoin:miter;stroke-miterlimit:4;stroke-dasharray:none;stroke-opacity:1"
           d="m 0,0 c -0.769,9.602 5.286,18.43 14.512,21.149 9.223,2.719 19.086,-1.418 23.629,-9.906" /></g></g><text
       y="357.01248"
       x="206.7271"
       id="text3987"
       style="font-variant:normal;font-weight:bold;font-stretch:normal;font-size:15.43949986px;font-family:Reglo;-inkscape-font-specification:Reglo-Bold;writing-mode:lr-tb;fill:#000000;fill-opacity:1;fill-rule:nonzero;stroke:none"
       transform="matrix(0,1,1,0,0,0)"><tspan
         y="357.01248"
         x="206.7271"
         sodipodi:role="line"
         id="tspan3989"
         style="text-align:center;text-anchor:middle">open</tspan><tspan
         y="376.31186"
         x="206.7271"
         sodipodi:role="line"
         id="tspan3991"
         style="text-align:center;text-anchor:middle">discussion</tspan></text>
<g
       id="g4003"
       transform="translate(105.16533,-260.09198)"><g
         transform="translate(400.59875,285.81649)"
         id="g4005"><path
           sodipodi:nodetypes="cc"
           inkscape:connector-curvature="0"
           id="path4007"
           style="fill:none;stroke:#000000;stroke-width:2.4000001;stroke-linecap:round;stroke-linejoin:miter;stroke-miterlimit:4;stroke-dasharray:none;stroke-opacity:1"
           d="M 0,0 0,21.524118" /></g><g
         transform="translate(400.59875,280.27739)"
         id="g4009"
         style="fill:#000000"><path
           inkscape:connector-curvature="0"
           id="path4011"
           style="fill:#000000;stroke:#000000;stroke-width:1.20000005;stroke-linecap:butt;stroke-linejoin:miter;stroke-miterlimit:4;stroke-dasharray:none;stroke-opacity:1"
           d="m 0,0 -4.796,8.305 9.597,0 L 0,0 Z" /></g></g><text
       y="-293.4935"
       x="-64.526611"
       id="text4013"
       style="font-variant:normal;font-weight:bold;font-stretch:normal;font-size:15.43000031px;font-family:Reglo;-inkscape-font-specification:Reglo-Bold;text-align:center;writing-mode:lr-tb;text-anchor:middle;fill:#000000;fill-opacity:1;fill-rule:nonzero;stroke:none"
       transform="scale(1,-1)"><tspan
         y="-293.4935"
         x="-64.526611"
         id="tspan4015"
         sodipodi:role="line">version 0.1</tspan></text>
<text
       transform="scale(1,-1)"
       style="font-variant:normal;font-weight:bold;font-stretch:normal;font-size:15.43000031px;font-family:Reglo;-inkscape-font-specification:Reglo-Bold;text-align:center;writing-mode:lr-tb;text-anchor:middle;fill:#000000;fill-opacity:1;fill-rule:nonzero;stroke:none"
       id="text4017"
       x="-64.526611"
       y="-132.5704"><tspan
         sodipodi:role="line"
         id="tspan4019"
         x="-64.526611"
         y="-132.5704">version 1.0</tspan></text>
<text
       transform="scale(1,-1)"
       style="font-variant:normal;font-weight:bold;font-stretch:normal;font-size:15.43949986px;font-family:Reglo;-inkscape-font-specification:Reglo-Bold;writing-mode:lr-tb;fill:#000000;fill-opacity:1;fill-rule:nonzero;stroke:none"
       id="text4021"
       x="491.64346"
       y="-123.18641"><tspan
         id="tspan4023"
         sodipodi:role="line"
         x="491.64346"
         y="-123.18641">fork</tspan></text>
<text
       y="-74.7892"
       x="504.7283"
       id="text4025"
       style="font-variant:normal;font-weight:bold;font-stretch:normal;font-size:15.43000031px;font-family:Reglo;-inkscape-font-specification:Reglo-Bold;text-align:center;writing-mode:lr-tb;text-anchor:middle;fill:#000000;fill-opacity:1;fill-rule:nonzero;stroke:none"
       transform="scale(1,-1)"><tspan
         y="-74.7892"
         x="504.7283"
         sodipodi:role="line"
         id="tspan4029">NEW</tspan><tspan
         y="-55.501698"
         x="504.7283"
         sodipodi:role="line"
         id="tspan4033">PROJECT</tspan></text>
<g
       transform="matrix(-0.5948464,0.80383938,0.80383938,0.5948464,426.74698,-305.14327)"
       id="g4035"><g
         id="g4037"
         transform="translate(400.59875,285.81649)"><path
           d="M 0,0 0,17.143067 0,37.76791"
           style="fill:none;stroke:#000000;stroke-width:2.4000001;stroke-linecap:round;stroke-linejoin:miter;stroke-miterlimit:4;stroke-dasharray:none;stroke-opacity:1"
           id="path4039"
           inkscape:connector-curvature="0"
           sodipodi:nodetypes="ccc" /></g><g
         style="fill:#000000"
         id="g4041"
         transform="translate(400.59875,280.27739)"><path
           d="m 0,0 -4.796,8.305 9.597,0 L 0,0 Z"
           style="fill:#000000;stroke:#000000;stroke-width:1.20000005;stroke-linecap:butt;stroke-linejoin:miter;stroke-miterlimit:4;stroke-dasharray:none;stroke-opacity:1"
           id="path4043"
           inkscape:connector-curvature="0" /></g></g><g
       id="g4045"
       transform="matrix(0.5948464,0.80383938,-0.80383938,0.5948464,498.84565,-393.65878)"><g
         transform="translate(400.59875,285.81649)"
         id="g4047" /><g
         transform="translate(400.59875,280.27739)"
         id="g4051"
         style="fill:#000000" /></g><g
       transform="translate(105.16533,-208.51407)"
       id="g4055"><g
         id="g4057"
         transform="translate(400.59875,285.81649)"><path
           d="m 0,18.031578 0,6.69254 -0.82119583,1.148643 -30.35933317,22.466105"
           style="fill:none;stroke:#000000;stroke-width:2.4000001;stroke-linecap:round;stroke-linejoin:miter;stroke-miterlimit:4;stroke-dasharray:none;stroke-opacity:1"
           id="path4059"
           inkscape:connector-curvature="0"
           sodipodi:nodetypes="cccc" /></g><g
         style="fill:#000000"
         id="g4061"
         transform="translate(400.59875,280.27739)" /></g><text
       y="-97.626282"
       x="419.80917"
       id="text4069"
       style="font-variant:normal;font-weight:bold;font-stretch:normal;font-size:15.43949986px;font-family:Reglo;-inkscape-font-specification:Reglo-Bold;writing-mode:lr-tb;fill:#000000;fill-opacity:1;fill-rule:nonzero;stroke:none"
       transform="scale(1,-1)"><tspan
         y="-97.626282"
         x="419.80917"
         sodipodi:role="line"
         id="tspan4071">dissent</tspan></text>
<g
       id="g4073"
       transform="matrix(-0.5948464,0.80383938,0.80383938,0.5948464,424.68386,-383.30138)"><g
         transform="translate(400.59875,285.81649)"
         id="g4075"><path
           sodipodi:nodetypes="cc"
           inkscape:connector-curvature="0"
           id="path4077"
           style="fill:none;stroke:#000000;stroke-width:2.4000001;stroke-linecap:round;stroke-linejoin:miter;stroke-miterlimit:4;stroke-dasharray:none;stroke-opacity:1"
           d="m 2.4563133,13.465171 0,13.549287" /><path
           d="M -10.976773,31.617829 1.9807077,27.657162"
           style="fill:none;stroke:#000000;stroke-width:2.4000001;stroke-linecap:round;stroke-linejoin:miter;stroke-miterlimit:4;stroke-dasharray:none;stroke-opacity:1"
           id="path4079"
           inkscape:connector-curvature="0"
           sodipodi:nodetypes="cc" /><path
           sodipodi:nodetypes="cc"
           inkscape:connector-curvature="0"
           id="path4081"
           style="fill:none;stroke:#000000;stroke-width:2.4000001;stroke-linecap:round;stroke-linejoin:miter;stroke-miterlimit:4;stroke-dasharray:none;stroke-opacity:1"
           d="m -11.452379,32.260533 0,13.549287" /></g></g><text
       transform="scale(1,-1)"
       style="font-variant:normal;font-weight:bold;font-stretch:normal;font-size:15.43949986px;font-family:Reglo;-inkscape-font-specification:Reglo-Bold;writing-mode:lr-tb;fill:#000000;fill-opacity:1;fill-rule:nonzero;stroke:none"
       id="text4094"
       x="486.25128"
       y="-285.7713"><tspan
         id="tspan4098"
         sodipodi:role="line"
         x="486.25128"
         y="-285.7713">USERS</tspan></text>
<text
       y="-49.902592"
       x="-67.901917"
       id="text4102"
       style="font-variant:normal;font-weight:bold;font-stretch:normal;font-size:15.43000031px;font-family:Reglo;-inkscape-font-specification:Reglo-Bold;text-align:center;writing-mode:lr-tb;text-anchor:middle;fill:#000000;fill-opacity:1;fill-rule:nonzero;stroke:none"
       transform="scale(1,-1)"><tspan
         y="-49.902592"
         x="-67.901917"
         id="tspan4104"
         sodipodi:role="line">version …</tspan></text>
<g
       transform="matrix(3.0323193,0,0,2.9793945,958.77069,253.93417)"
       id="g4106"><path
         inkscape:connector-curvature="0"
         id="path4108"
         style="fill:none;stroke:#000000;stroke-width:0.79847217;stroke-linecap:round;stroke-linejoin:miter;stroke-miterlimit:4;stroke-dasharray:3.19388858, 3.19388858;stroke-dashoffset:0;stroke-opacity:1"
         d="M 0,0 C 1.055,10.816 -6.562,20.55 -17.297,22.109" /><path
         d="m 22.451255,-34.275105 c 1.055,10.816 -6.562,20.55 -17.297,22.109"
         style="fill:none;stroke:#000000;stroke-width:0.79847217;stroke-linecap:round;stroke-linejoin:miter;stroke-miterlimit:4;stroke-dasharray:3.19388858, 3.19388858;stroke-dashoffset:0;stroke-opacity:1"
         id="path4910"
         inkscape:connector-curvature="0" /></g><g
       id="g4952"
       transform="matrix(-0.5948464,0.80383938,0.80383938,0.5948464,534.70142,-292.56277)" /><g
       id="g4966"
       transform="translate(566.91793,-110.87212)" /><g
       transform="translate(513.29084,13.167341)"
       id="g4968"
       clip-path="url(#clipPath146)"><g
         id="g4970"
         transform="matrix(-0.45958073,0,0,0.45458452,37.035551,213.88546)"><path
           d="m 0,0 22.809,-6.109 14.527,3.847 c 4.914,2.532 8.863,0.758 5.656,-4.527 -2.14,-3.527 -9.804,-4.524 -14.707,-6.785 l 30.75,-17.754 c 3.024,-3.656 3.75,-8.117 -3.402,-8.93 l -24.816,14.274 25.265,-14.821 c 0,0 4.758,-7.218 -4.844,-8.105 l -24.535,14.738 22.875,-13.609 c -1.133,-2.356 1.867,-6.891 -5.453,-7.188 l -22.848,13.192 21.508,-12.418 c -0.941,-2.215 -0.168,-5 -7.144,-5.2 0,0 -33.379,18.2 -41.43,25.582 -8.047,7.383 -10.613,12.317 -10.613,12.317"
           style="fill:none;stroke:#000000;stroke-width:5.25077057;stroke-linecap:round;stroke-linejoin:round;stroke-miterlimit:4;stroke-dasharray:none;stroke-opacity:1"
           id="path4972"
           inkscape:connector-curvature="0" /></g></g><g
       clip-path="url(#clipPath146)"
       id="g5001"
       transform="matrix(-1,0,0,1,361.12806,124.5617)"><g
         transform="matrix(-0.45958073,0,0,0.45458452,37.035551,213.88546)"
         id="g5003"><path
           inkscape:connector-curvature="0"
           id="path5005"
           style="fill:none;stroke:#000000;stroke-width:5.25077057;stroke-linecap:round;stroke-linejoin:round;stroke-miterlimit:4;stroke-dasharray:none;stroke-opacity:1"
           d="m 0,0 22.809,-6.109 14.527,3.847 c 4.914,2.532 8.863,0.758 5.656,-4.527 -2.14,-3.527 -9.804,-4.524 -14.707,-6.785 l 30.75,-17.754 c 3.024,-3.656 3.75,-8.117 -3.402,-8.93 l -24.816,14.274 25.265,-14.821 c 0,0 4.758,-7.218 -4.844,-8.105 l -24.535,14.738 22.875,-13.609 c -1.133,-2.356 1.867,-6.891 -5.453,-7.188 l -22.848,13.192 21.508,-12.418 c -0.941,-2.215 -0.168,-5 -7.144,-5.2 0,0 -33.379,18.2 -41.43,25.582 -8.047,7.383 -10.613,12.317 -10.613,12.317" /></g></g></g></svg>